PathFileType	4	(X/Y/Z)	c:/Users/goper/Files/vsCode/490R/osim_files/A02/A02_PWS_03.trc
DataRate	CameraRate	NumFrames	NumMarkers	Units                	OrigDataRate	OrigDataStartFrame	OrigNumFrames
250.00	250.00	8	36	mm	250.0	1427	2852
                Frame#	Time	Mobility_markerset:LPSIS			Mobility_markerset:LASIS			Mobility_markerset:LTH1			Mobility_markerset:LTH2			Mobility_markerset:LTH3			Mobility_markerset:LTH4			Mobility_markerset:LLFE			Mobility_markerset:LMFE			Mobility_markerset:LSH1			Mobility_markerset:LSH2			Mobility_markerset:LSH3			Mobility_markerset:LSH4			Mobility_markerset:LLMAL			Mobility_markerset:LMMAL			Mobility_markerset:LCAL			Mobility_markerset:LMTP5			Mobility_markerset:LTOE			Mobility_markerset:LMTP1			Mobility_markerset:RPSIS			Mobility_markerset:RASIS			Mobility_markerset:RTH1			Mobility_markerset:RTH2			Mobility_markerset:RTH3			Mobility_markerset:RTH4			Mobility_markerset:RLFE			Mobility_markerset:RMFE			Mobility_markerset:RSH1			Mobility_markerset:RSH2			Mobility_markerset:RSH3			Mobility_markerset:RSH4			Mobility_markerset:RLMAL			Mobility_markerset:RMMAL			Mobility_markerset:RCAL			Mobility_markerset:RMTP1			Mobility_markerset:RTOE			Mobility_markerset:RMTP5		
		X1	Y1	Z1	X2	Y2	Z2	X3	Y3	Z3	X4	Y4	Z4	X5	Y5	Z5	X6	Y6	Z6	X7	Y7	Z7	X8	Y8	Z8	X9	Y9	Z9	X10	Y10	Z10	X11	Y11	Z11	X12	Y12	Z12	X13	Y13	Z13	X14	Y14	Z14	X15	Y15	Z15	X16	Y16	Z16	X17	Y17	Z17	X18	Y18	Z18	X19	Y19	Z19	X20	Y20	Z20	X21	Y21	Z21	X22	Y22	Z22	X23	Y23	Z23	X24	Y24	Z24	X25	Y25	Z25	X26	Y26	Z26	X27	Y27	Z27	X28	Y28	Z28	X29	Y29	Z29	X30	Y30	Z30	X31	Y31	Z31	X32	Y32	Z32	X33	Y33	Z33	X34	Y34	Z34	X35	Y35	Z35	X36	Y36	Z36

1427	5.70400	-129.52829	931.27057	365.43805	-269.40463	886.52826	460.02957	-173.02493	653.80334	496.94815	-160.71573	610.82617	487.59247	-115.61288	666.07684	477.65451	-111.54712	618.80176	471.96262	0.00000	0.00000	0.00000	-118.54690	421.58972	326.13669	1.12639	411.37305	431.12350	23.85232	373.39914	436.63208	-49.07857	375.94037	441.65057	-19.64391	342.65015	445.07797	121.51664	140.64494	399.94943	103.88043	138.13921	317.23300	191.62468	145.72966	352.52151	65.17452	44.81498	423.27902	8.76696	46.62725	360.36023	52.33688	34.79551	311.85614	-142.44601	940.39520	265.27463	-300.91748	908.11975	211.53963	-334.19635	573.59058	197.48445	-358.32050	536.69257	197.90248	-390.64124	600.75183	196.60541	-404.81689	561.00983	194.70291	-421.64081	442.03558	187.57727	-445.50226	455.68588	319.92969	-541.65540	293.74902	203.73302	-557.91522	249.74152	211.42574	-487.67880	268.38654	210.09819	-510.60446	228.82741	220.00545	-577.85736	85.77207	219.21846	-591.72247	96.85699	305.85165	-538.88989	54.44037	267.99582	-719.38623	109.22928	289.96066	-732.36841	127.18720	253.62218	-707.11505	100.65694	198.95010
1428	5.70800	-135.83022	931.07245	364.98828	-275.63702	886.45605	459.94864	-178.47246	653.90912	497.02997	-165.94203	611.01068	487.75351	-121.19244	666.35278	477.40118	-116.96571	619.14862	471.85147	0.00000	0.00000	0.00000	-123.25661	421.65814	326.19556	-3.37160	412.61868	431.23535	19.67024	374.70010	436.68137	-53.30105	376.64996	441.99347	-23.45512	343.67654	445.44385	119.01104	142.49921	400.28152	101.16534	139.75813	317.67386	188.51945	148.79889	352.74573	64.58556	45.15244	423.39386	8.12959	46.15310	360.27158	51.94898	35.09173	312.15149	-148.94249	940.03625	264.80322	-307.40149	907.82422	211.54178	-339.06009	575.10364	197.51193	-362.72705	538.08942	197.79755	-397.06668	600.84924	197.91547	-409.49130	562.05457	194.59906	-425.60797	442.80255	187.20343	-449.40988	456.34750	319.84790	-544.10223	293.63351	203.66789	-560.06384	249.48285	211.28979	-489.85468	268.73361	210.04579	-512.33862	228.90767	219.96962	-578.68719	85.51788	218.95334	-592.61523	96.67704	305.82703	-539.75159	54.46429	267.83588	-720.34717	107.82516	289.82333	-733.47925	125.58497	253.43553	-708.00281	99.25063	198.81912
1429	5.71200	-142.11351	930.97809	364.54855	-281.91843	886.49237	459.87393	-184.12993	654.09564	497.07596	-171.49112	611.20721	487.90088	-126.92248	666.70538	477.19101	-122.50742	619.47412	471.69894	0.00000	0.00000	0.00000	-128.72177	421.38672	326.94223	-8.42985	413.39584	431.42752	15.33619	376.09171	436.75897	-57.59937	377.40353	442.47711	-27.49459	344.69995	445.90002	116.30183	144.44975	400.73453	98.30428	141.46628	318.18674	185.50166	152.27359	352.99649	64.69648	46.14579	423.76599	8.57607	45.43526	360.79993	51.53920	35.49796	312.37518	-155.41476	939.82782	264.31161	-314.09686	907.66595	211.55217	-343.97629	576.60638	197.52054	-367.30939	539.37585	197.79979	-402.03278	601.99969	197.74928	-414.10709	562.92102	194.51802	-428.99991	443.88336	187.40425	-453.13498	457.06741	319.60666	-546.54828	293.43008	203.54454	-562.14758	249.16817	211.29335	-492.10291	269.01819	210.07787	-514.41852	229.03537	219.91457	-579.35223	85.22434	218.94160	-593.57190	96.16121	305.74924	-539.85492	54.76939	267.96710	-721.35114	106.25260	289.71997	-734.70068	123.92751	253.30759	-708.80249	97.72372	198.82314
1430	5.71600	-148.38197	930.96533	364.13467	-287.99100	886.58160	459.96161	-189.76891	654.33051	497.18335	-177.03954	611.40509	488.12619	-132.76091	667.02264	476.98364	-128.19142	619.83258	471.63174	0.00000	0.00000	0.00000	-134.29543	421.16071	327.57465	-12.94530	414.83920	431.41159	10.77160	377.48724	436.86429	-61.74857	378.47104	443.55734	-31.70224	345.69363	446.43906	113.32307	146.34065	401.22073	95.24104	143.18765	318.70319	181.83586	155.55962	353.19235	63.82244	46.47337	423.85471	8.05251	45.00814	360.79340	51.49199	36.04623	312.38199	-161.79054	939.65778	263.79022	-320.15283	907.54468	211.92372	-348.97440	577.94965	197.57788	-371.89813	540.56982	197.80222	-407.35846	602.62311	197.92708	-419.02075	563.70557	194.45863	-432.68457	444.49719	187.55289	-457.27100	457.55219	319.54935	-549.09497	293.12723	203.55006	-564.43628	248.69711	211.30237	-494.47519	269.19241	210.14725	-516.59900	228.94147	219.98766	-580.22546	84.82562	219.11592	-594.37866	95.87854	305.97314	-540.58441	54.93507	268.02475	-722.41382	104.61359	289.75046	-735.92542	121.94151	253.24716	-709.64282	96.30136	198.67586
1431	5.72000	-154.62772	930.96167	363.71344	-294.13458	886.78223	459.95258	-195.50414	654.59888	497.30566	-182.79698	611.66058	488.28058	-138.70490	667.39050	476.80579	-133.96622	620.20715	471.58533	0.00000	0.00000	0.00000	-139.90408	421.05237	328.17511	-18.45172	415.69116	431.68088	6.05702	378.92465	437.02997	-66.62027	379.15527	443.99527	-36.18412	346.79639	446.93146	110.20422	148.40216	401.72238	91.92974	144.94228	319.29968	178.27634	159.28664	353.48843	62.11806	46.20138	423.64548	7.39224	44.62277	360.79788	51.05355	36.52822	312.46777	-168.16797	939.56372	263.25809	-326.60117	907.80438	212.05817	-354.00748	579.12646	197.57323	-376.50775	541.57953	197.83681	-412.40735	603.47833	197.95267	-423.97708	564.36188	194.36818	-436.68384	444.99252	187.66676	-461.38318	458.02155	319.55505	-551.87756	292.73718	203.58473	-566.77161	248.21346	211.33144	-496.97745	269.26929	210.25391	-518.83344	228.80025	220.06218	-581.37256	84.46458	219.12402	-595.94708	95.20075	306.01120	-541.73529	55.03327	268.00070	-723.75635	102.49326	289.71252	-737.50641	119.71700	253.33099	-710.96124	94.35332	198.73611
1432	5.72400	-160.86177	931.04523	363.35870	-300.36023	887.07324	459.93680	-201.41841	654.90363	497.48758	-188.76323	611.89587	488.52100	-144.69473	667.77887	476.67117	-140.01750	620.50751	471.54916	0.00000	0.00000	0.00000	-145.62918	421.07339	328.65344	-23.51028	417.17953	431.79462	1.05618	380.34705	437.16791	-71.59608	379.99649	444.62146	-40.76923	347.91742	447.55084	106.80253	150.43214	402.31268	88.14889	146.32123	320.45642	174.16197	162.93985	353.78952	61.02907	46.52743	423.71246	6.71780	44.30200	360.76218	50.31831	36.76853	312.70651	-174.57385	939.57727	262.73914	-332.90823	908.27490	212.23978	-359.04874	580.19049	197.50122	-381.26462	542.49243	197.88475	0.00000	0.00000	0.00000	-428.80597	564.82043	194.27052	-440.74765	445.37131	187.68428	-465.52689	458.24423	319.54749	-554.68994	292.27838	203.59090	-569.66895	247.61572	210.75545	-499.65961	269.28070	210.29878	-521.35657	228.45309	219.80919	-582.59344	84.12222	219.10335	-597.16028	94.82607	306.15472	-542.23511	55.50470	268.09348	-725.29315	100.11385	289.76657	-739.20538	117.25427	253.38220	-712.30164	92.10972	198.83261
1433	5.72800	-167.01308	931.26996	363.04022	-306.54483	887.44873	459.92435	-207.43488	655.22906	497.68484	-194.76320	612.21527	488.76559	-150.73546	668.11975	476.50894	-146.14333	620.89709	471.58667	0.00000	0.00000	0.00000	-152.04060	420.83829	329.59247	-29.13948	418.39865	431.96439	-4.22349	381.84930	437.48367	-76.82436	380.83801	445.30420	-45.75064	349.05124	448.15024	103.17121	152.54173	402.88019	84.40382	148.08429	321.18085	169.67847	166.71860	354.07971	61.09702	47.84605	424.15588	5.93622	44.03586	360.69818	49.69455	37.37293	312.76447	-180.86183	939.71436	262.25592	-339.31995	908.87341	212.38562	-364.23361	581.13806	197.36450	-385.99905	543.63434	197.51933	0.00000	0.00000	0.00000	-433.95224	565.34949	194.17177	-445.00696	445.72659	187.61234	-469.73813	458.44281	319.45496	-557.79327	291.80911	203.54091	-572.32294	247.08102	210.87512	-502.40341	269.28677	210.25699	-523.87201	228.39310	219.96300	-584.07629	83.60741	218.95102	-598.71942	94.20338	306.07379	-543.16663	55.81684	268.05225	-726.70520	97.73177	289.80338	-740.92438	114.72175	253.52679	-713.90009	89.83459	198.98882
1434	5.73200	-173.24231	931.52881	362.76093	-312.66483	887.97742	459.89218	-213.43866	655.63293	497.94498	-200.71339	612.62787	489.04312	-156.80205	668.47931	476.35626	-152.38168	621.13062	471.94540	0.00000	0.00000	0.00000	-158.47919	420.70514	330.31458	-35.01229	419.60156	432.26910	-9.81437	383.28397	437.73276	-82.24020	381.71970	445.98276	-50.86848	350.12112	448.86368	99.26716	154.65083	403.45239	80.30229	149.95024	321.94003	164.80817	170.56332	354.35718	59.84314	48.30101	424.19171	5.18539	43.69112	360.63120	49.06907	38.10066	312.48090	-187.10204	939.95074	261.81821	-345.56152	909.46204	212.52406	-369.47635	582.08002	197.15973	-391.05737	544.28107	197.46968	0.00000	0.00000	0.00000	-438.99445	565.76129	194.10088	-449.17120	446.07135	187.48048	-474.00665	458.63751	319.32632	-560.79803	291.26779	203.50439	-574.91229	246.45750	210.96603	-505.17645	269.21494	210.17247	-526.34052	228.21858	219.96713	-585.41510	83.19547	218.82916	-600.48682	93.18516	304.96091	-544.10297	56.16770	268.00336	-728.12042	95.56481	290.08340	-742.61218	112.25211	253.68475	-715.36334	87.63579	199.17155
